<svg width="203" height="169" viewBox="0 0 203 169" fill="none" xmlns="http://www.w3.org/2000/svg">
<mask id="path-1-outside-1_4308_1098" maskUnits="userSpaceOnUse" x="-2.81602" y="-3.49173" width="211.114" height="175.092" fill="black">
<rect fill="white" x="-2.81602" y="-3.49173" width="211.114" height="175.092"/>
<path fill-rule="evenodd" clip-rule="evenodd" d="M85.1781 67.9207C85.1456 67.5083 85.1188 67.0967 85.098 66.686C83.577 36.7632 106.551 11.267 136.423 9.74865C166.299 8.23012 191.736 31.2657 193.257 61.1921C193.278 61.613 193.294 62.0356 193.303 62.4596C193.496 69.4216 192.363 76.1271 190.13 82.3259C179.181 117.411 143.759 154.087 143.759 154.087L143.759 154.083C143.759 154.083 104.838 121.222 90.3726 87.443C87.5051 81.4807 85.6893 74.897 85.1781 67.9207ZM39.5027 81.131L71.8665 79.486C74.4681 79.3538 76.126 77.1993 75.0253 75.3849L56.9211 45.5376C55.5442 43.2661 51.2808 43.5114 50.1882 45.9226L35.9251 77.4151C35.0602 79.3258 36.926 81.262 39.5027 81.131ZM118.333 153.972L85.9695 155.617C83.3927 155.748 81.5269 153.812 82.3919 151.901L96.655 120.409C97.7475 117.997 102.011 117.752 103.388 120.024L121.492 149.871C122.593 151.685 120.935 153.84 118.333 153.972ZM27.0134 70.4839C34.8289 70.0867 39.6934 65.3314 39.2879 57.3531C38.8798 49.3251 33.5034 44.9903 25.6382 45.3901L11.7238 46.0973C10.1102 46.1794 9.58402 46.7629 9.66364 48.3294L11.2705 79.9432C11.3501 81.5097 11.9328 82.0369 13.5464 81.9549L19.24 81.6655C20.8536 81.5835 21.3301 81.0024 21.2505 79.436L20.8115 70.7991L27.0134 70.4839ZM21.6147 86.5308L22.8801 111.427L35.0316 110.809C36.5954 110.73 37.1756 111.207 37.2577 112.823L37.4913 117.419C37.5709 118.986 37.0447 119.569 35.4809 119.649L15.5139 120.664C13.9003 120.746 13.3177 120.219 13.2381 118.652L11.6312 87.0382C11.5516 85.4717 12.0778 84.8882 13.6914 84.8062L19.3886 84.5166C21.0022 84.4346 21.5351 84.9643 21.6147 86.5308ZM46.8153 83.1221L40.8657 83.4245C39.3552 83.5013 38.876 84.0289 38.9531 85.5455L40.5703 117.362C40.6472 118.875 41.174 119.355 42.6881 119.278L48.6377 118.976C50.1482 118.899 50.6273 118.372 50.5502 116.855L48.9331 85.0382C48.8562 83.5252 48.3293 83.0451 46.8153 83.1221ZM43.467 123.729L45.0739 155.343C45.1535 156.909 44.6273 157.493 43.0635 157.572L37.3662 157.862C36.3071 157.916 35.7373 157.641 35.2463 156.956L26.8722 145.382C24.4773 142.009 23.5001 139.678 21.9079 135.204L21.5063 135.225L21.6319 135.686C22.8593 140.189 23.5562 142.746 23.8319 148.17L24.2503 156.401C24.3299 157.968 23.8037 158.551 22.1901 158.633L17.1006 158.892C15.4871 158.974 14.9044 158.447 14.8248 156.88L13.2179 125.267C13.1383 123.7 13.6645 123.117 15.2781 123.035L21.2277 122.732C22.3863 122.673 22.9064 122.95 23.3973 123.636L32.3214 136.146C34.0486 138.578 34.7916 140.244 35.7501 142.392C36.1206 143.223 36.5234 144.125 37.0277 145.172L37.4293 145.152C35.5513 140.033 34.7742 137.642 34.5123 132.49L34.0914 124.209C34.0118 122.643 34.4883 122.062 36.1018 121.98L41.2446 121.718C42.8084 121.639 43.3911 122.166 43.4707 123.732L43.467 123.729ZM79.8655 153.576L78.2586 121.962C78.1765 120.345 77.5938 119.818 76.03 119.898L70.283 120.19C68.7192 120.269 68.193 120.853 68.2751 122.469L68.8424 133.63L59.0615 134.127L58.4942 122.966C58.4121 121.35 57.8791 120.82 56.2656 120.902L50.5683 121.192C48.9548 121.274 48.4285 121.857 48.5107 123.474L50.1176 155.088C50.1972 156.654 50.7799 157.181 52.3934 157.099L58.0907 156.81C59.7042 156.728 60.1807 156.147 60.1011 154.58L59.5106 142.963L69.2915 142.466L69.882 154.083C69.9616 155.649 70.5443 156.177 72.1081 156.097L77.8551 155.805C79.4189 155.726 79.9451 155.142 79.8655 153.576Z"/>
</mask>
<path fill-rule="evenodd" clip-rule="evenodd" d="M85.1781 67.9207C85.1456 67.5083 85.1188 67.0967 85.098 66.686C83.577 36.7632 106.551 11.267 136.423 9.74865C166.299 8.23012 191.736 31.2657 193.257 61.1921C193.278 61.613 193.294 62.0356 193.303 62.4596C193.496 69.4216 192.363 76.1271 190.13 82.3259C179.181 117.411 143.759 154.087 143.759 154.087L143.759 154.083C143.759 154.083 104.838 121.222 90.3726 87.443C87.5051 81.4807 85.6893 74.897 85.1781 67.9207ZM39.5027 81.131L71.8665 79.486C74.4681 79.3538 76.126 77.1993 75.0253 75.3849L56.9211 45.5376C55.5442 43.2661 51.2808 43.5114 50.1882 45.9226L35.9251 77.4151C35.0602 79.3258 36.926 81.262 39.5027 81.131ZM118.333 153.972L85.9695 155.617C83.3927 155.748 81.5269 153.812 82.3919 151.901L96.655 120.409C97.7475 117.997 102.011 117.752 103.388 120.024L121.492 149.871C122.593 151.685 120.935 153.84 118.333 153.972ZM27.0134 70.4839C34.8289 70.0867 39.6934 65.3314 39.2879 57.3531C38.8798 49.3251 33.5034 44.9903 25.6382 45.3901L11.7238 46.0973C10.1102 46.1794 9.58402 46.7629 9.66364 48.3294L11.2705 79.9432C11.3501 81.5097 11.9328 82.0369 13.5464 81.9549L19.24 81.6655C20.8536 81.5835 21.3301 81.0024 21.2505 79.436L20.8115 70.7991L27.0134 70.4839ZM21.6147 86.5308L22.8801 111.427L35.0316 110.809C36.5954 110.73 37.1756 111.207 37.2577 112.823L37.4913 117.419C37.5709 118.986 37.0447 119.569 35.4809 119.649L15.5139 120.664C13.9003 120.746 13.3177 120.219 13.2381 118.652L11.6312 87.0382C11.5516 85.4717 12.0778 84.8882 13.6914 84.8062L19.3886 84.5166C21.0022 84.4346 21.5351 84.9643 21.6147 86.5308ZM46.8153 83.1221L40.8657 83.4245C39.3552 83.5013 38.876 84.0289 38.9531 85.5455L40.5703 117.362C40.6472 118.875 41.174 119.355 42.6881 119.278L48.6377 118.976C50.1482 118.899 50.6273 118.372 50.5502 116.855L48.9331 85.0382C48.8562 83.5252 48.3293 83.0451 46.8153 83.1221ZM43.467 123.729L45.0739 155.343C45.1535 156.909 44.6273 157.493 43.0635 157.572L37.3662 157.862C36.3071 157.916 35.7373 157.641 35.2463 156.956L26.8722 145.382C24.4773 142.009 23.5001 139.678 21.9079 135.204L21.5063 135.225L21.6319 135.686C22.8593 140.189 23.5562 142.746 23.8319 148.17L24.2503 156.401C24.3299 157.968 23.8037 158.551 22.1901 158.633L17.1006 158.892C15.4871 158.974 14.9044 158.447 14.8248 156.88L13.2179 125.267C13.1383 123.7 13.6645 123.117 15.2781 123.035L21.2277 122.732C22.3863 122.673 22.9064 122.95 23.3973 123.636L32.3214 136.146C34.0486 138.578 34.7916 140.244 35.7501 142.392C36.1206 143.223 36.5234 144.125 37.0277 145.172L37.4293 145.152C35.5513 140.033 34.7742 137.642 34.5123 132.49L34.0914 124.209C34.0118 122.643 34.4883 122.062 36.1018 121.98L41.2446 121.718C42.8084 121.639 43.3911 122.166 43.4707 123.732L43.467 123.729ZM79.8655 153.576L78.2586 121.962C78.1765 120.345 77.5938 119.818 76.03 119.898L70.283 120.19C68.7192 120.269 68.193 120.853 68.2751 122.469L68.8424 133.63L59.0615 134.127L58.4942 122.966C58.4121 121.35 57.8791 120.82 56.2656 120.902L50.5683 121.192C48.9548 121.274 48.4285 121.857 48.5107 123.474L50.1176 155.088C50.1972 156.654 50.7799 157.181 52.3934 157.099L58.0907 156.81C59.7042 156.728 60.1807 156.147 60.1011 154.58L59.5106 142.963L69.2915 142.466L69.882 154.083C69.9616 155.649 70.5443 156.177 72.1081 156.097L77.8551 155.805C79.4189 155.726 79.9451 155.142 79.8655 153.576Z" fill="#D9D9D9" fill-opacity="0.13"/>
<path d="M85.1781 67.9207L94.7265 67.221C94.7252 67.2033 94.7239 67.1857 94.7225 67.168L85.1781 67.9207ZM193.303 62.4596L183.731 62.6719C183.732 62.6896 183.732 62.7073 183.733 62.725L193.303 62.4596ZM190.13 82.3259L181.122 79.0804C181.076 79.2106 181.031 79.3419 180.99 79.474L190.13 82.3259ZM143.759 154.087L134.198 154.573C134.391 158.382 136.828 161.713 140.399 163.052C143.971 164.39 147.996 163.481 150.646 160.738L143.759 154.087ZM143.759 154.083L153.321 153.597C153.186 150.95 151.961 148.478 149.936 146.768L143.759 154.083ZM90.3726 87.443L99.1735 83.6741C99.1187 83.546 99.061 83.4191 99.0006 83.2935L90.3726 87.443ZM71.8665 79.486L71.3805 69.9244L71.8665 79.486ZM39.5027 81.131L39.9887 90.6926L39.5027 81.131ZM75.0253 75.3849L66.8395 80.3501L66.8397 80.3505L75.0253 75.3849ZM56.9211 45.5376L48.7338 50.5003L48.7353 50.5028L56.9211 45.5376ZM50.1882 45.9226L41.4676 41.9714L41.467 41.9727L50.1882 45.9226ZM35.9251 77.4151L27.2039 73.4652L27.2032 73.4668L35.9251 77.4151ZM82.3919 151.901L73.6707 147.951L73.67 147.953L82.3919 151.901ZM96.655 120.409L87.9344 116.457L87.9338 116.459L96.655 120.409ZM103.388 120.024L95.2005 124.986L95.202 124.989L103.388 120.024ZM121.492 149.871L113.306 154.836L113.306 154.837L121.492 149.871ZM25.6382 45.3901L26.1242 54.9518L25.6382 45.3901ZM11.7238 46.0973L11.2378 36.5357L11.7238 46.0973ZM9.66364 48.3294L19.2253 47.8434L9.66364 48.3294ZM11.2705 79.9432L1.70884 80.4292L11.2705 79.9432ZM13.5464 81.9549L13.0604 72.3932L13.5464 81.9549ZM19.24 81.6655L19.726 91.2272L19.24 81.6655ZM21.2505 79.436L30.8121 78.95L21.2505 79.436ZM20.8115 70.7991L20.3255 61.2375C17.7896 61.3664 15.4087 62.4974 13.7067 64.3817C12.0047 66.266 11.1209 68.7492 11.2498 71.2851L20.8115 70.7991ZM22.8801 111.427L13.3184 111.913C13.4473 114.449 14.5783 116.829 16.4626 118.531C18.3469 120.233 20.8302 121.117 23.3661 120.988L22.8801 111.427ZM21.6147 86.5308L31.1764 86.0448L21.6147 86.5308ZM35.0316 110.809L34.5456 101.247L35.0316 110.809ZM13.6914 84.8062L14.1774 94.3678L13.6914 84.8062ZM19.3886 84.5166L18.9026 74.9549L19.3886 84.5166ZM40.8657 83.4245L41.3517 92.9862L40.8657 83.4245ZM46.8153 83.1221L46.3293 73.5604L46.8153 83.1221ZM45.0739 155.343L35.5122 155.829L45.0739 155.343ZM43.467 123.729L49.8806 116.621C47.0063 114.027 42.853 113.42 39.3566 115.082C35.8602 116.744 33.7088 120.349 33.9053 124.215L43.467 123.729ZM43.0635 157.572L42.5775 148.011L43.0635 157.572ZM37.3662 157.862L37.8522 167.424L37.3662 157.862ZM35.2463 156.956L43.0295 151.381C43.0207 151.369 43.0119 151.356 43.0031 151.344L35.2463 156.956ZM26.8722 145.382L19.0661 150.925C19.0825 150.948 19.0989 150.971 19.1155 150.994L26.8722 145.382ZM21.9079 135.204L30.9277 131.994C29.5097 128.01 25.6456 125.428 21.4219 125.643L21.9079 135.204ZM21.5063 135.225L21.0203 125.663C18.1259 125.81 15.4538 127.261 13.7534 129.608C12.053 131.955 11.5072 134.945 12.2691 137.742L21.5063 135.225ZM21.6319 135.686L12.3947 138.203L12.3949 138.204L21.6319 135.686ZM23.8319 148.17L14.2703 148.656L23.8319 148.17ZM24.2503 156.401L33.812 155.915L24.2503 156.401ZM22.1901 158.633L21.7041 149.072L22.1901 158.633ZM17.1006 158.892L17.5866 168.454L17.1006 158.892ZM15.2781 123.035L15.7641 132.596L15.2781 123.035ZM21.2277 122.732L20.7417 113.171L21.2277 122.732ZM23.3973 123.636L31.1915 118.076C31.1878 118.071 31.1841 118.065 31.1805 118.06L23.3973 123.636ZM32.3214 136.146L40.1275 130.603C40.1235 130.597 40.1195 130.591 40.1156 130.586L32.3214 136.146ZM35.7501 142.392L44.4934 138.491L44.4934 138.491L35.7501 142.392ZM37.0277 145.172L28.4017 149.326C30.0738 152.799 33.6648 154.93 37.5137 154.734L37.0277 145.172ZM37.4293 145.152L37.9153 154.714C40.9535 154.559 43.7375 152.97 45.4154 150.433C47.0933 147.895 47.4653 144.711 46.4176 141.855L37.4293 145.152ZM34.5123 132.49L44.074 132.004L34.5123 132.49ZM34.0914 124.209L24.5298 124.695L34.0914 124.209ZM43.4707 123.732L37.0571 130.841C39.9314 133.434 44.0847 134.041 47.5811 132.379C51.0776 130.717 53.2289 127.113 53.0324 123.246L43.4707 123.732ZM76.03 119.898L75.544 110.336L76.03 119.898ZM70.283 120.19L70.769 129.751L70.283 120.19ZM68.8424 133.63L69.3284 143.192C74.6092 142.923 78.6725 138.425 78.4041 133.144L68.8424 133.63ZM59.0615 134.127L49.4998 134.613C49.7682 139.894 54.2667 143.957 59.5475 143.689L59.0615 134.127ZM60.1011 154.58L50.5394 155.066L60.1011 154.58ZM59.5106 142.963L59.0246 133.402C53.7439 133.67 49.6805 138.169 49.949 143.449L59.5106 142.963ZM69.2915 142.466L78.8532 141.98C78.5848 136.7 74.0863 132.636 68.8055 132.905L69.2915 142.466ZM75.5363 67.172C75.5618 67.6731 75.5943 68.1737 75.6338 68.6735L94.7225 67.168C94.6969 66.8429 94.6759 66.5202 94.6596 66.2L75.5363 67.172ZM135.937 0.186987C100.765 1.97472 73.748 31.9877 75.5363 67.172L94.6596 66.2C93.4061 41.5386 112.337 20.5593 136.909 19.3103L135.937 0.186987ZM202.819 60.7061C201.03 25.5191 171.114 -1.60097 135.937 0.186987L136.909 19.3103C161.484 18.0612 182.442 37.0123 183.695 61.6781L202.819 60.7061ZM202.875 62.2473C202.863 61.7336 202.845 61.2198 202.819 60.7061L183.695 61.6781C183.712 62.0063 183.724 62.3376 183.731 62.6719L202.875 62.2473ZM199.137 85.5713C201.768 78.2675 203.1 70.3722 202.873 62.1942L183.733 62.725C183.892 68.4709 182.958 73.9866 181.122 79.0804L199.137 85.5713ZM143.759 154.087C150.646 160.738 150.647 160.737 150.648 160.735C150.649 160.735 150.651 160.733 150.652 160.732C150.654 160.729 150.657 160.726 150.661 160.722C150.668 160.715 150.677 160.705 150.689 160.693C150.711 160.67 150.743 160.637 150.782 160.596C150.861 160.513 150.973 160.396 151.116 160.244C151.402 159.942 151.814 159.504 152.335 158.94C153.376 157.812 154.86 156.179 156.667 154.116C160.277 149.995 165.2 144.131 170.482 137.129C180.906 123.309 193.298 104.314 199.269 85.1778L180.99 79.474C176.013 95.4235 165.22 112.308 155.195 125.598C150.253 132.15 145.637 137.648 142.263 141.5C140.578 143.423 139.209 144.93 138.271 145.945C137.802 146.452 137.442 146.836 137.204 147.088C137.085 147.214 136.996 147.307 136.941 147.365C136.913 147.394 136.893 147.415 136.882 147.426C136.876 147.432 136.872 147.436 136.871 147.438C136.87 147.438 136.87 147.439 136.87 147.438C136.871 147.438 136.871 147.437 136.871 147.437C136.872 147.436 136.873 147.435 143.759 154.087ZM134.198 154.569L134.198 154.573L153.321 153.601L153.321 153.597L134.198 154.569ZM81.5717 91.212C89.4604 109.633 103.708 127.261 115.472 139.942C121.433 146.367 126.921 151.697 130.927 155.427C132.932 157.295 134.572 158.767 135.722 159.782C136.297 160.29 136.75 160.684 137.065 160.956C137.223 161.091 137.346 161.197 137.433 161.271C137.477 161.308 137.511 161.337 137.536 161.359C137.548 161.369 137.559 161.378 137.567 161.385C137.57 161.388 137.574 161.391 137.576 161.393C137.578 161.394 137.579 161.396 137.58 161.396C137.582 161.397 137.583 161.398 143.759 154.083C149.936 146.768 149.937 146.769 149.937 146.769C149.938 146.769 149.938 146.77 149.938 146.77C149.939 146.77 149.939 146.77 149.938 146.77C149.936 146.768 149.932 146.765 149.926 146.76C149.914 146.749 149.892 146.731 149.861 146.704C149.8 146.652 149.703 146.569 149.572 146.456C149.31 146.23 148.912 145.885 148.395 145.428C147.36 144.514 145.846 143.155 143.977 141.414C140.233 137.928 135.087 132.931 129.509 126.919C118.197 114.724 105.75 99.0318 99.1735 83.6741L81.5717 91.212ZM75.6297 68.6205C76.2302 76.8151 78.3659 84.5673 81.7445 91.5925L99.0006 83.2935C96.6444 78.3941 95.1485 72.9788 94.7265 67.221L75.6297 68.6205ZM71.3805 69.9244L39.0167 71.5693L39.9887 90.6926L72.3525 89.0477L71.3805 69.9244ZM66.8397 80.3505C66.0821 79.1016 65.68 77.5427 65.8264 75.9149C65.9673 74.3486 66.5771 73.0971 67.2485 72.2252C68.5554 70.5279 70.2302 69.9828 71.3805 69.9244L72.3525 89.0477C76.1043 88.857 79.9089 87.1685 82.42 83.9073C85.103 80.4229 86.0799 75.1488 83.211 70.4194L66.8397 80.3505ZM48.7353 50.5028L66.8395 80.3501L83.2112 70.4197L65.107 40.5724L48.7353 50.5028ZM58.9089 49.8739C57.5013 52.9804 54.8286 53.4847 53.9959 53.5324C53.1566 53.5805 50.4805 53.3821 48.7338 50.5003L65.1085 40.5748C61.9848 35.4216 56.4886 34.2101 52.9002 34.4158C49.3184 34.6211 43.9677 36.4536 41.4676 41.9714L58.9089 49.8739ZM44.6464 81.365L58.9095 49.8725L41.467 41.9727L27.2039 73.4652L44.6464 81.365ZM39.0167 71.5693C40.1544 71.5115 41.8525 71.8744 43.3192 73.3973C44.0729 74.1799 44.811 75.3409 45.1289 76.864C45.4593 78.4469 45.2495 80.0327 44.6471 81.3635L27.2032 73.4668C24.9373 78.4723 26.5121 83.5493 29.5274 86.6801C32.3549 89.616 36.2743 90.8814 39.9887 90.6926L39.0167 71.5693ZM86.4554 165.179L118.819 163.534L117.847 144.41L85.4835 146.055L86.4554 165.179ZM73.67 147.953C71.404 152.958 72.9789 158.035 75.9941 161.166C78.8217 164.102 82.7411 165.368 86.4554 165.179L85.4835 146.055C86.6211 145.998 88.3192 146.36 89.7859 147.883C90.5397 148.666 91.2777 149.827 91.5956 151.35C91.926 152.933 91.7162 154.519 91.1138 155.85L73.67 147.953ZM87.9338 116.459L73.6707 147.951L91.1131 155.851L105.376 124.359L87.9338 116.459ZM111.575 115.061C108.452 109.908 102.955 108.696 99.3669 108.902C95.7852 109.107 90.4344 110.94 87.9344 116.457L105.376 124.36C103.968 127.466 101.295 127.971 100.463 128.018C99.6234 128.067 96.9473 127.868 95.2005 124.986L111.575 115.061ZM129.678 144.906L111.574 115.058L95.202 124.989L113.306 154.836L129.678 144.906ZM118.819 163.534C122.571 163.343 126.376 161.655 128.887 158.393C131.57 154.909 132.547 149.635 129.678 144.905L113.306 154.837C112.549 153.588 112.147 152.029 112.293 150.401C112.434 148.835 113.044 147.583 113.715 146.711C115.022 145.014 116.697 144.469 117.847 144.41L118.819 163.534ZM29.7262 57.8391C29.776 58.8194 29.6497 59.4083 29.5514 59.7055C29.4603 59.9805 29.3692 60.087 29.3208 60.1375C29.2664 60.1943 28.6404 60.8148 26.5274 60.9222L27.4994 80.0456C33.2019 79.7557 38.9159 77.8 43.1462 73.3853C47.4528 68.891 49.159 62.9557 48.8495 56.8671L29.7262 57.8391ZM26.1242 54.9518C28.2239 54.845 28.9359 55.4008 29.0311 55.4823C29.0523 55.5004 29.6292 55.9304 29.7262 57.8391L48.8495 56.8671C48.5385 50.7478 46.2232 44.9963 41.4879 40.9401C36.8265 36.9471 30.9177 35.5354 25.1522 35.8284L26.1242 54.9518ZM12.2098 55.659L26.1242 54.9518L25.1522 35.8284L11.2378 36.5357L12.2098 55.659ZM19.2253 47.8434C19.2303 47.9425 19.2625 48.5743 19.0569 49.471C18.8292 50.4638 18.2919 51.8463 17.1095 53.1334C15.9345 54.4126 14.6248 55.0505 13.7093 55.3525C12.8766 55.6272 12.2831 55.6553 12.2098 55.659L11.2378 36.5357C9.82547 36.6075 5.98761 36.9363 3.00802 40.1799C-0.0167611 43.4728 0.0286672 47.3729 0.101982 48.8154L19.2253 47.8434ZM20.8322 79.4572L19.2253 47.8434L0.101982 48.8154L1.70884 80.4292L20.8322 79.4572ZM13.0604 72.3932C13.1337 72.3895 13.7269 72.3573 14.5833 72.5461C15.5246 72.7538 16.8922 73.2555 18.1909 74.409C19.4977 75.5696 20.1724 76.8905 20.4996 77.8551C20.795 78.7263 20.8271 79.3581 20.8322 79.4572L1.70884 80.4292C1.78216 81.8717 2.13242 85.7563 5.47548 88.7255C8.76858 91.6503 12.62 91.5883 14.0324 91.5166L13.0604 72.3932ZM18.7541 72.1038L13.0604 72.3932L14.0324 91.5166L19.726 91.2272L18.7541 72.1038ZM11.6888 79.922C11.6866 79.8785 11.6513 79.2933 11.8321 78.4428C12.0322 77.5016 12.5287 76.0982 13.7101 74.763C14.8978 73.4207 16.2493 72.7445 17.2073 72.4239C18.0697 72.1352 18.6866 72.1073 18.7541 72.1038L19.726 91.2272C21.1108 91.1568 25.0567 90.835 28.0503 87.4518C31.0003 84.1178 30.8763 80.2137 30.8121 78.95L11.6888 79.922ZM11.2498 71.2851L11.6888 79.922L30.8121 78.95L30.3731 70.3131L11.2498 71.2851ZM26.5274 60.9222L20.3255 61.2375L21.2975 80.3608L27.4994 80.0456L26.5274 60.9222ZM32.4418 110.941L31.1764 86.0448L12.053 87.0168L13.3184 111.913L32.4418 110.941ZM34.5456 101.247L22.3941 101.865L23.3661 120.988L35.5176 120.371L34.5456 101.247ZM46.8194 112.337C46.7492 110.957 46.4301 107.016 43.0568 104.021C39.7227 101.061 35.8135 101.183 34.5456 101.247L35.5176 120.371C35.4719 120.373 34.8832 120.408 34.0289 120.226C33.0828 120.024 31.6779 119.524 30.3438 118.34C29.0042 117.15 28.3317 115.8 28.0135 114.846C27.7269 113.988 27.6994 113.374 27.6961 113.309L46.8194 112.337ZM47.053 116.933L46.8194 112.337L27.6961 113.309L27.9297 117.905L47.053 116.933ZM35.9669 129.21C37.4189 129.137 41.2543 128.784 44.2126 125.503C47.1667 122.227 47.1265 118.38 47.053 116.933L27.9297 117.905C27.9245 117.804 27.8936 117.184 28.0932 116.302C28.313 115.332 28.8333 113.965 29.9922 112.68C31.1518 111.394 32.4599 110.734 33.4071 110.415C34.2673 110.125 34.8907 110.092 34.9949 110.087L35.9669 129.21ZM15.9999 130.225L35.9669 129.21L34.9949 110.087L15.0279 111.102L15.9999 130.225ZM3.6764 119.138C3.74971 120.58 4.09997 124.465 7.44305 127.434C10.7362 130.359 14.5876 130.297 15.9999 130.225L15.0279 111.102C15.1013 111.098 15.6945 111.066 16.5508 111.255C17.4921 111.463 18.8598 111.964 20.1585 113.118C21.4652 114.278 22.14 115.599 22.4671 116.564C22.7626 117.435 22.7947 118.067 22.7997 118.166L3.6764 119.138ZM2.06954 87.5242L3.6764 119.138L22.7997 118.166L21.1929 86.5522L2.06954 87.5242ZM13.2054 75.2445C11.793 75.3163 7.95517 75.6451 4.97558 78.8888C1.95079 82.1816 1.99622 86.0818 2.06954 87.5242L21.1929 86.5522C21.1979 86.6513 21.23 87.2831 21.0244 88.1799C20.7968 89.1726 20.2594 90.5552 19.0771 91.8423C17.902 93.1214 16.5923 93.7593 15.6769 94.0613C14.8441 94.336 14.2507 94.3641 14.1774 94.3678L13.2054 75.2445ZM18.9026 74.9549L13.2054 75.2445L14.1774 94.3678L19.8746 94.0783L18.9026 74.9549ZM31.1764 86.0448C31.1121 84.7811 30.8396 80.8845 27.5668 77.8668C24.2456 74.8046 20.2873 74.8846 18.9026 74.9549L19.8746 94.0783C19.8071 94.0817 19.1906 94.1164 18.3034 93.9167C17.3178 93.6948 15.9048 93.1592 14.587 91.9442C13.2763 90.7357 12.6401 89.3898 12.3456 88.4738C12.0795 87.646 12.0553 87.0602 12.053 87.0168L31.1764 86.0448ZM41.3517 92.9862L47.3013 92.6837L46.3293 73.5604L40.3797 73.8628L41.3517 92.9862ZM48.5148 85.0595C48.5185 85.1325 48.5528 85.7481 48.3603 86.6292C48.147 87.6048 47.6267 89.025 46.4197 90.3616C45.2124 91.6985 43.8517 92.3611 42.9009 92.6727C42.0426 92.9541 41.4253 92.9824 41.3517 92.9862L40.3797 73.8628C39.1005 73.9279 35.2011 74.2145 32.2084 77.5286C29.2173 80.841 29.3262 84.7481 29.3915 86.0315L48.5148 85.0595ZM50.1319 116.876L48.5148 85.0595L29.3915 86.0315L31.0086 117.848L50.1319 116.876ZM42.2021 109.717C42.2774 109.713 42.8965 109.679 43.7814 109.873C44.7618 110.088 46.1834 110.612 47.5187 111.822C48.8528 113.031 49.5117 114.39 49.821 115.336C50.1003 116.191 50.1283 116.805 50.1319 116.876L31.0086 117.848C31.0734 119.123 31.3577 123.018 34.6618 126.011C37.9741 129.013 41.8862 128.906 43.1741 128.84L42.2021 109.717ZM48.1517 109.414L42.2021 109.717L43.1741 128.84L49.1237 128.538L48.1517 109.414ZM40.9886 117.341C40.9849 117.268 40.9505 116.652 41.1431 115.771C41.3563 114.796 41.8767 113.376 43.0836 112.039C44.2909 110.702 45.6517 110.039 46.6024 109.728C47.4608 109.446 48.078 109.418 48.1517 109.414L49.1237 128.538C50.4029 128.473 54.3023 128.186 57.2949 124.872C60.2861 121.56 60.1771 117.652 60.1119 116.369L40.9886 117.341ZM39.3714 85.5242L40.9886 117.341L60.1119 116.369L58.4947 84.5522L39.3714 85.5242ZM47.3013 92.6837C47.226 92.6876 46.6069 92.7219 45.722 92.5277C44.7415 92.3126 43.32 91.7887 41.9846 90.5787C40.6506 89.37 39.9916 88.0102 39.6824 87.0641C39.403 86.2094 39.375 85.5956 39.3714 85.5242L58.4947 84.5522C58.4299 83.2775 58.1456 79.3829 54.8416 76.3891C51.5293 73.3879 47.6172 73.495 46.3293 73.5604L47.3013 92.6837ZM54.6355 154.857L53.0287 123.243L33.9053 124.215L35.5122 155.829L54.6355 154.857ZM43.5494 167.134C45.0014 167.06 48.8368 166.708 51.7951 163.427C54.7492 160.151 54.7091 156.304 54.6355 154.857L35.5122 155.829C35.507 155.727 35.4761 155.107 35.6758 154.226C35.8955 153.256 36.4159 151.889 37.5748 150.604C38.7343 149.318 40.0424 148.658 40.9896 148.339C41.8498 148.049 42.4732 148.016 42.5775 148.011L43.5494 167.134ZM37.8522 167.424L43.5494 167.134L42.5775 148.011L36.8802 148.3L37.8522 167.424ZM27.4632 162.531C28.4148 163.86 29.9277 165.436 32.2459 166.453C34.4321 167.413 36.4783 167.494 37.8522 167.424L36.8802 148.3C37.195 148.284 38.4267 148.255 39.9405 148.919C41.5863 149.642 42.5687 150.738 43.0295 151.381L27.4632 162.531ZM19.1155 150.994L27.4896 162.568L43.0031 151.344L34.629 139.77L19.1155 150.994ZM12.8882 138.415C14.5986 143.22 15.9262 146.503 19.0661 150.925L34.6783 139.839C33.0284 137.515 32.4016 136.136 30.9277 131.994L12.8882 138.415ZM21.9923 144.787L22.3939 144.766L21.4219 125.643L21.0203 125.663L21.9923 144.787ZM30.8692 133.169L30.7436 132.708L12.2691 137.742L12.3947 138.203L30.8692 133.169ZM33.3936 147.684C33.0653 141.225 32.1539 137.882 30.869 133.168L12.3949 138.204C13.5646 142.495 14.0472 144.266 14.2703 148.656L33.3936 147.684ZM33.812 155.915L33.3936 147.684L14.2703 148.656L14.6886 156.887L33.812 155.915ZM22.6761 168.195C24.0885 168.123 27.9263 167.794 30.9059 164.551C33.9307 161.258 33.8853 157.358 33.812 155.915L14.6886 156.887C14.6836 156.788 14.6515 156.156 14.8571 155.26C15.0847 154.267 15.6221 152.884 16.8044 151.597C17.9795 150.318 19.2892 149.68 20.2046 149.378C21.0374 149.104 21.6308 149.075 21.7041 149.072L22.6761 168.195ZM17.5866 168.454L22.6761 168.195L21.7041 149.072L16.6147 149.33L17.5866 168.454ZM5.26313 157.366C5.33645 158.809 5.68671 162.694 9.0298 165.663C12.3229 168.588 16.1743 168.526 17.5866 168.454L16.6147 149.33C16.688 149.327 17.2812 149.294 18.1375 149.483C19.0789 149.691 20.4465 150.193 21.7452 151.346C23.0519 152.507 23.7267 153.828 24.0538 154.792C24.3493 155.664 24.3814 156.295 24.3864 156.394L5.26313 157.366ZM3.65627 125.753L5.26313 157.366L24.3864 156.394L22.7796 124.781L3.65627 125.753ZM14.7921 113.473C13.3798 113.545 9.54191 113.874 6.56233 117.117C3.53753 120.41 3.58296 124.31 3.65627 125.753L22.7796 124.781C22.7846 124.88 22.8168 125.512 22.6112 126.408C22.3835 127.401 21.8461 128.784 20.6638 130.071C19.4888 131.35 18.1791 131.988 17.2636 132.29C16.4309 132.564 15.8374 132.593 15.7641 132.596L14.7921 113.473ZM20.7417 113.171L14.7921 113.473L15.7641 132.596L21.7137 132.294L20.7417 113.171ZM31.1805 118.06C30.3342 116.879 28.8502 115.209 26.4102 114.138C24.1491 113.146 22.0411 113.104 20.7417 113.171L21.7137 132.294C21.5729 132.301 20.3042 132.369 18.7156 131.672C16.948 130.896 15.9695 129.707 15.6142 129.211L31.1805 118.06ZM40.1156 130.586L31.1915 118.076L15.6032 129.195L24.5273 141.706L40.1156 130.586ZM44.4934 138.491C43.4808 136.222 42.4264 133.84 40.1275 130.603L24.5153 141.689C25.6708 143.316 26.1024 144.266 27.0067 146.293L44.4934 138.491ZM45.6536 141.019C45.2168 140.111 44.8653 139.325 44.4934 138.491L27.0067 146.293C27.376 147.12 27.83 148.139 28.4017 149.326L45.6536 141.019ZM36.9433 135.59L36.5417 135.611L37.5137 154.734L37.9153 154.714L36.9433 135.59ZM24.9507 132.976C25.2838 139.531 26.4301 142.967 28.441 148.449L46.4176 141.855C44.6726 137.098 44.2645 135.753 44.074 132.004L24.9507 132.976ZM24.5298 124.695L24.9507 132.976L44.074 132.004L43.6531 123.723L24.5298 124.695ZM35.6158 112.418C34.2311 112.488 30.2852 112.81 27.2916 116.193C24.3416 119.527 24.4655 123.432 24.5298 124.695L43.6531 123.723C43.6553 123.767 43.6906 124.352 43.5098 125.202C43.3097 126.144 42.8131 127.547 41.6318 128.882C40.444 130.225 39.0926 130.901 38.1345 131.221C37.2721 131.51 36.6553 131.538 36.5878 131.541L35.6158 112.418ZM40.7586 112.157L35.6158 112.418L36.5878 131.541L41.7306 131.28L40.7586 112.157ZM53.0324 123.246C52.9588 121.799 52.6087 117.968 49.3377 115.009C46.062 112.045 42.2106 112.083 40.7586 112.157L41.7306 131.28C41.6264 131.285 41.0029 131.316 40.1177 131.115C39.143 130.893 37.7748 130.369 36.4908 129.208C35.2076 128.046 34.5513 126.739 34.2343 125.797C33.9464 124.94 33.9142 124.32 33.9091 124.218L53.0324 123.246ZM37.0533 130.837L37.0571 130.841L49.8844 116.624L49.8806 116.621L37.0533 130.837ZM68.697 122.448L70.3038 154.062L89.4272 153.09L87.8203 121.476L68.697 122.448ZM76.516 129.459C76.4144 129.465 75.779 129.497 74.8784 129.289C73.8808 129.06 72.497 128.519 71.2113 127.334C69.9349 126.157 69.3006 124.849 69.001 123.938C68.7283 123.109 68.7006 122.519 68.697 122.448L87.8203 121.476C87.7487 120.068 87.4224 116.235 84.1886 113.254C80.8962 110.219 76.9913 110.262 75.544 110.336L76.516 129.459ZM70.769 129.751L76.516 129.459L75.544 110.336L69.797 110.628L70.769 129.751ZM77.8368 121.983C77.8404 122.054 77.8726 122.644 77.6854 123.496C77.4797 124.433 76.9813 125.799 75.8308 127.099C74.6719 128.408 73.3501 129.087 72.3809 129.416C71.506 129.714 70.8706 129.746 70.769 129.751L69.797 110.628C68.3497 110.702 64.4605 111.055 61.4928 114.408C58.5779 117.701 58.6419 121.547 58.7135 122.955L77.8368 121.983ZM78.4041 133.144L77.8368 121.983L58.7135 122.955L59.2808 134.116L78.4041 133.144ZM59.5475 143.689L69.3284 143.192L68.3564 124.068L58.5755 124.566L59.5475 143.689ZM48.9325 123.452L49.4998 134.613L68.6231 133.641L68.0559 122.48L48.9325 123.452ZM56.7516 130.464C56.6869 130.467 56.0584 130.503 55.1559 130.298C54.1469 130.068 52.7185 129.515 51.3997 128.276C50.0975 127.053 49.4834 125.707 49.2055 124.824C48.9537 124.023 48.9333 123.467 48.9325 123.452L68.0559 122.48C67.9934 121.252 67.741 117.355 64.5087 114.319C61.1718 111.185 57.159 111.271 55.7796 111.341L56.7516 130.464ZM51.0543 130.754L56.7516 130.464L55.7796 111.341L50.0823 111.63L51.0543 130.754ZM58.0724 122.988C58.0758 123.056 58.1093 123.657 57.9164 124.525C57.7031 125.484 57.1883 126.866 56.0138 128.169C54.8386 129.472 53.5146 130.128 52.5775 130.44C51.7302 130.722 51.125 130.75 51.0543 130.754L50.0823 111.63C48.6757 111.702 44.7834 112.03 41.7934 115.346C38.8078 118.657 38.8778 122.558 38.949 123.96L58.0724 122.988ZM59.6792 154.602L58.0724 122.988L38.949 123.96L40.5559 155.574L59.6792 154.602ZM51.9074 147.538C51.9808 147.534 52.574 147.502 53.4303 147.691C54.3716 147.898 55.7393 148.4 57.0379 149.553C58.3447 150.714 59.0195 152.035 59.3466 152.999C59.6421 153.871 59.6742 154.502 59.6792 154.602L40.5559 155.574C40.6292 157.016 40.9795 160.901 44.3226 163.87C47.6157 166.795 51.4671 166.733 52.8794 166.661L51.9074 147.538ZM57.6047 147.248L51.9074 147.538L52.8794 166.661L58.5767 166.371L57.6047 147.248ZM50.5394 155.066C50.5372 155.023 50.5019 154.437 50.6827 153.587C50.8828 152.646 51.3793 151.242 52.5607 149.907C53.7485 148.565 55.0999 147.889 56.058 147.568C56.9204 147.279 57.5372 147.251 57.6047 147.248L58.5767 166.371C59.9614 166.301 63.9073 165.979 66.9009 162.596C69.8509 159.262 69.727 155.358 69.6627 154.094L50.5394 155.066ZM49.949 143.449L50.5394 155.066L69.6627 154.094L69.0723 142.477L49.949 143.449ZM68.8055 132.905L59.0246 133.402L59.9966 152.525L69.7775 152.028L68.8055 132.905ZM79.4436 153.597L78.8532 141.98L59.7299 142.952L60.3203 154.569L79.4436 153.597ZM71.6221 146.536C71.7264 146.53 72.3498 146.499 73.235 146.701C74.2097 146.922 75.578 147.446 76.8619 148.608C78.1451 149.769 78.8015 151.076 79.1184 152.019C79.4063 152.875 79.4385 153.495 79.4436 153.597L60.3203 154.569C60.3939 156.016 60.744 159.847 64.015 162.807C67.2907 165.771 71.1421 165.733 72.5941 165.659L71.6221 146.536ZM77.3691 146.243L71.6221 146.536L72.5941 165.659L78.3411 165.367L77.3691 146.243ZM70.3038 154.062C70.2987 153.96 70.2678 153.34 70.4674 152.459C70.6871 151.489 71.2075 150.122 72.3664 148.836C73.526 147.551 74.834 146.891 75.7813 146.571C76.6414 146.281 77.2648 146.249 77.3691 146.243L78.3411 165.367C79.793 165.293 83.6284 164.94 86.5867 161.659C89.5408 158.383 89.5007 154.537 89.4272 153.09L70.3038 154.062Z" fill="white" mask="url(#path-1-outside-1_4308_1098)"/>
<g clip-path="url(#clip0_4308_1098)">
<path d="M85.4437 66.8075C86.5745 89.0518 100.96 107.497 120.568 114.893C127.371 117.472 134.804 118.707 142.523 118.314L144.355 154.357C144.355 154.357 196.103 100.923 194.088 61.2884C192.564 31.3084 167.015 8.235 137.004 9.76054C107.008 11.2854 83.9164 36.8313 85.4402 66.8077L85.4437 66.8075Z" fill="#822281"/>
<path d="M137.004 9.76054C106.997 11.2859 83.9164 36.8313 85.4402 66.8077C87.4551 106.446 144.355 154.354 144.355 154.354L142.522 118.311C150.241 117.918 157.514 115.936 164.017 112.68C182.774 103.335 195.215 83.5257 194.084 61.2815C192.564 31.3084 167.005 8.23555 137.004 9.76054Z" fill="#EC631A"/>
<path d="M127.846 78.9196L126.262 47.7626C126.136 45.2803 127.999 43.4872 129.839 44.3198L160.135 58.0516C162.457 59.1028 162.687 63.2068 160.503 64.5335L131.791 81.9622C130.045 83.0236 127.974 81.4268 127.846 78.9232L127.846 78.9196Z" fill="#822281"/>
<path d="M72.147 79.6349L39.637 81.2875C37.0486 81.4191 35.1747 79.4798 36.0438 77.5655L50.3755 46.0143C51.4732 43.5985 55.756 43.3522 57.1388 45.6276L75.3207 75.526C76.4261 77.3435 74.7604 79.5021 72.147 79.6349Z" fill="#822281"/>
<path d="M118.814 154.248L86.304 155.9C83.7156 156.032 81.8417 154.093 82.7108 152.178L97.0424 120.627C98.1402 118.211 102.423 117.965 103.806 120.24L121.988 150.139C123.093 151.956 121.427 154.115 118.814 154.248Z" fill="#822281"/>
<path d="M39.4253 57.4656C39.8316 65.4581 34.9445 70.2227 27.0937 70.6218L20.8637 70.9384L21.3036 79.5908C21.3833 81.16 20.9046 81.7422 19.2838 81.8246L13.5644 82.1153C11.9435 82.1977 11.3583 81.6696 11.2785 80.1004L9.6686 48.4298C9.58883 46.8606 10.1175 46.2759 11.7384 46.1935L25.7156 45.483C33.6164 45.0814 39.0165 49.4231 39.4253 57.4656Z" fill="#822281"/>
<path d="M21.6677 86.6943L22.9357 111.638L35.1422 111.018C36.713 110.938 37.2957 111.416 37.378 113.035L37.6121 117.64C37.6919 119.209 37.1632 119.794 35.5923 119.874L15.5351 120.893C13.9142 120.976 13.329 120.447 13.2492 118.878L11.6393 87.2077C11.5595 85.6384 12.0882 85.0537 13.7091 84.9713L19.4321 84.6804C21.0529 84.598 21.5882 85.1286 21.6679 86.6979L21.6677 86.6943Z" fill="#822281"/>
<path d="M41.0067 83.5839L46.9832 83.2801C48.5041 83.2028 49.0332 83.6836 49.1103 85.1994L50.7305 117.073C50.8077 118.593 50.3263 119.121 48.809 119.198L42.8325 119.502C41.3116 119.579 40.7825 119.099 40.7055 117.583L39.0852 85.709C39.008 84.1896 39.4894 83.661 41.0067 83.5839Z" fill="#822281"/>
<path d="M43.6139 123.96L45.2238 155.631C45.3036 157.2 44.775 157.785 43.2041 157.865L37.4811 158.156C36.4172 158.21 35.8448 157.935 35.3517 157.248L26.9414 145.654C24.5361 142.276 23.5548 139.941 21.9561 135.46L21.5526 135.48C22.8635 140.284 23.6015 142.831 23.887 148.449L24.3062 156.694C24.386 158.264 23.8573 158.848 22.2364 158.931L17.1239 159.19C15.5031 159.273 14.9178 158.745 14.8381 157.176L13.2282 125.505C13.1484 123.936 13.6771 123.351 15.2979 123.269L21.2744 122.965C22.4383 122.906 22.9607 123.183 23.4537 123.87L32.4164 136.401C34.8217 139.779 35.3264 141.681 37.1427 145.443L37.5461 145.423C35.6604 140.295 34.88 137.899 34.6177 132.738L34.196 124.443C34.1162 122.873 34.5949 122.291 36.2158 122.209L41.3818 121.946C42.9527 121.866 43.5379 122.395 43.6177 123.964L43.6139 123.96Z" fill="#822281"/>
<path d="M78.5623 122.185L80.1722 153.855C80.252 155.425 79.7233 156.009 78.1524 156.089L72.3795 156.383C70.8086 156.463 70.2234 155.934 70.1436 154.365L69.552 142.728L59.7269 143.227L60.3185 154.865C60.3982 156.434 59.9195 157.016 58.2987 157.098L52.5757 157.389C50.9548 157.472 50.3696 156.944 50.2898 155.374L48.6799 123.704C48.5976 122.085 49.1263 121.5 50.7471 121.418L56.4701 121.127C58.091 121.044 58.6262 121.575 58.7086 123.194L59.2769 134.375L69.102 133.876L68.5337 122.695C68.4514 121.075 68.98 120.491 70.5509 120.411L76.3239 120.117C77.8948 120.038 78.48 120.566 78.5623 122.185Z" fill="#822281"/>
</g>
<defs>
<clipPath id="clip0_4308_1098">
<rect width="183.887" height="144.78" fill="white" transform="translate(7.67871 16.3364) rotate(-2.91)"/>
</clipPath>
</defs>
</svg>
